# xmcd
#
# Track frame offsets:
#	160
#	11762
#	28753
#	49061
#	68681
#	84826
#	97786
#	115736
#	135607
#	147499
#
# Disc length: 2279 seconds
#
# Revision: 1
# Processed by: cddbd v1.5.1PL0 Copyright (c) Steve Scherf et al.
# Submitted via: audiograbber 1.83.01
#
DISCID=7b08e50a
DTITLE=—борник - „удеса витают в воздухе
DYEAR=2004
DGENRE=
TTITLE0=Sinatra Frank - Jingle Bells
TTITLE1=Las Ketchup - The Ketchup Song X-Mas rmx
TTITLE2=Lauper Cindy - Feels Like Christmas
TTITLE3=Wham! - Last Christmas
TTITLE4=Destiny's Child - This Christmas
TTITLE5=Gray Macy - Winter Wonderland
TTITLE6=Carey Mariah - All I Want For Christmas Is You
TTITLE7=Estefan Gloria - Love On Layaway
TTITLE8=Ross Diana and The Supremes - Santa Claus Is Coming To Town
TTITLE9=Hollyridge Strings - Jingle Bells Rock
EXTD=
EXTT0=
EXTT1=
EXTT2=
EXTT3=
EXTT4=
EXTT5=
EXTT6=
EXTT7=
EXTT8=
EXTT9=
PLAYORDER=
